<svg xmlns="http://www.w3.org/2000/svg" viewBox="0 0 1024 1024" role="img" aria-label="Winlinez Revival icon">
  <defs>
    <linearGradient id="tile" x1="0" y1="0" x2="1" y2="1">
      <stop offset="0" stop-color="#071426"/>
      <stop offset="0.55" stop-color="#15172f"/>
      <stop offset="1" stop-color="#301839"/>
    </linearGradient>
    <radialGradient id="marble" cx="30%" cy="24%" r="76%">
      <stop offset="0" stop-color="#eaffff"/>
      <stop offset="0.14" stop-color="#83f6ff"/>
      <stop offset="0.42" stop-color="#13c9e8"/>
      <stop offset="0.72" stop-color="#1765c9"/>
      <stop offset="1" stop-color="#102263"/>
    </radialGradient>
    <linearGradient id="gold" x1="0" y1="0" x2="0.85" y2="1">
      <stop offset="0" stop-color="#fff7a8"/>
      <stop offset="0.38" stop-color="#ffd83f"/>
      <stop offset="0.74" stop-color="#ed9c13"/>
      <stop offset="1" stop-color="#9f4f08"/>
    </linearGradient>
    <filter id="tileGlow" x="-20%" y="-20%" width="140%" height="140%">
      <feGaussianBlur stdDeviation="18" result="blur"/>
      <feMerge><feMergeNode in="blur"/><feMergeNode in="SourceGraphic"/></feMerge>
    </filter>
    <filter id="ballGlow" x="-35%" y="-35%" width="170%" height="170%">
      <feGaussianBlur stdDeviation="28" result="blur"/>
      <feMerge><feMergeNode in="blur"/><feMergeNode in="SourceGraphic"/></feMerge>
    </filter>
  </defs>

  <rect x="44" y="44" width="936" height="936" rx="220" fill="url(#tile)"/>
  <rect x="58" y="58" width="908" height="908" rx="206" fill="none" stroke="#60e8ff" stroke-opacity="0.68" stroke-width="10" filter="url(#tileGlow)"/>
  <path d="M128 736 C258 900 766 900 896 736" fill="none" stroke="#ff4ccf" stroke-opacity="0.26" stroke-width="24" stroke-linecap="round"/>

  <circle cx="512" cy="624" r="270" fill="#1ce4ff" opacity="0.24" filter="url(#ballGlow)"/>
  <circle cx="512" cy="624" r="248" fill="url(#marble)" stroke="#9cf9ff" stroke-width="12"/>
  <ellipse cx="430" cy="512" rx="84" ry="55" fill="#ffffff" opacity="0.56" transform="rotate(-30 430 512)"/>
  <ellipse cx="385" cy="475" rx="28" ry="17" fill="#ffffff" opacity="0.92" transform="rotate(-30 385 475)"/>
  <path d="M350 712 C430 780 600 793 684 700" fill="none" stroke="#07194b" stroke-opacity="0.48" stroke-width="24" stroke-linecap="round"/>

  <path d="M298 388 L326 214 L430 315 L512 150 L594 315 L698 214 L726 388 Z" fill="url(#gold)" stroke="#713907" stroke-width="14" stroke-linejoin="round"/>
  <rect x="294" y="365" width="436" height="104" rx="31" fill="url(#gold)" stroke="#713907" stroke-width="14"/>
  <path d="M326 393 H698" stroke="#fff3a0" stroke-opacity="0.72" stroke-width="12" stroke-linecap="round"/>
  <circle cx="380" cy="416" r="19" fill="#ff557e" stroke="#8b1536" stroke-width="7"/>
  <circle cx="512" cy="416" r="21" fill="#54efff" stroke="#086a88" stroke-width="7"/>
  <circle cx="644" cy="416" r="19" fill="#ff557e" stroke="#8b1536" stroke-width="7"/>

  <path d="M792 235 v68 M758 269 h68" stroke="#fff8a8" stroke-width="18" stroke-linecap="round"/>
  <path d="M220 570 v42 M199 591 h42" stroke="#8ff7ff" stroke-width="12" stroke-linecap="round" opacity="0.9"/>
</svg>
